PathFileType	4	(X/Y/Z)	C:/Users/opensim2020/Desktop/walking_exp_matlab/subject02_walking15_straight_03.trc	
DataRate	CameraRate	NumFrames	NumMarkers	Units	OrigDataRate	OrigDataStartFrame	OrigNumFrames	
100.00	100.00	6	42	mm	100.00	1368	103	
Frame#	Time	LFHD			RFHD			LBHD			RBHD			C7			T10			CLAV			STRN			RBAK			LSHO			LUPA			LELB			LFRM			LWRA			LWRB			LFIN			RSHO			RUPA			RELB			RFRM			RWRA			RWRB			RFIN			LASI			RASI			LPSI			RPSI			LTHI			LKNE			LTIB			LANK			LHEE			LTOE			RTHI			RKNE			RTIB			RANK			RHEE			RTOE			*39			*40			*41			
		X1	Y1	Z1	X2	Y2	Z2	X3	Y3	Z3	X4	Y4	Z4	X5	Y5	Z5	X6	Y6	Z6	X7	Y7	Z7	X8	Y8	Z8	X9	Y9	Z9	X10	Y10	Z10	X11	Y11	Z11	X12	Y12	Z12	X13	Y13	Z13	X14	Y14	Z14	X15	Y15	Z15	X16	Y16	Z16	X17	Y17	Z17	X18	Y18	Z18	X19	Y19	Z19	X20	Y20	Z20	X21	Y21	Z21	X22	Y22	Z22	X23	Y23	Z23	X24	Y24	Z24	X25	Y25	Z25	X26	Y26	Z26	X27	Y27	Z27	X28	Y28	Z28	X29	Y29	Z29	X30	Y30	Z30	X31	Y31	Z31	X32	Y32	Z32	X33	Y33	Z33	X34	Y34	Z34	X35	Y35	Z35	X36	Y36	Z36	X37	Y37	Z37	X38	Y38	Z38	X39	Y39	Z39	X40	Y40	Z40	X41	Y41	Z41	X42	Y42	Z42	

91	0.900	1350.61609	491.99814	1727.02551	1492.70923	514.91516	1719.75842	1369.89978	358.53125	1659.90491	1512.82764	368.55569	1651.88171	1458.95630	313.21838	1518.74048	1499.36621	278.57516	1243.12598	1429.01013	451.58917	1455.34167	1439.56128	514.17041	1287.02478	1546.06909	276.03940	1347.03052	1273.52856	350.41586	1481.25500	1200.95056	344.06305	1278.88562	1187.57324	364.63412	1136.14246	1189.40051	442.78967	1025.19800	1225.29077	560.14020	962.25684	1202.91589	519.85217	930.77734	1197.87195	572.87457	893.34241	1629.85205	417.65970	1504.89050	1741.13989	397.48999	1329.19348	1780.13135	408.23218	1189.18884	1819.34998	431.20346	1077.37195	1821.28406	466.37735	944.76080	1859.27039	424.53329	953.51361	1870.37231	454.98462	887.59924	1341.15771	464.11221	971.53015	1587.80933	534.36407	988.24384	1473.51099	289.21216	1027.50378	1585.35864	314.23569	1039.40515	1315.95374	430.67392	654.64648	1340.65442	438.88263	477.55560	1381.22742	293.44360	378.05490	1441.91956	158.26482	210.14572	1505.73669	132.52859	207.40082	1398.73132	230.64400	81.91857	1682.20435	507.07288	681.40649	1643.25293	508.61826	470.34720	1664.90942	467.16983	286.27686	1638.22705	433.01306	94.73258	1594.48535	383.54022	40.05778	1617.50330	582.03528	41.90107	1449.51135	409.77820	1805.07349	-3356.84375	2846.04883	1034.34888			 
92	0.910	1347.57251	505.28793	1729.20154	1489.79614	529.20923	1722.15051	1368.00586	372.36932	1661.97302	1510.38147	382.87949	1653.97095	1458.06042	327.80856	1521.33435	1499.06799	292.49405	1245.64160	1426.59119	465.70615	1457.56970	1437.36902	528.35052	1289.23462	1546.04749	290.95288	1350.01355	1272.38965	362.50076	1483.34204	1199.90601	352.67133	1280.80310	1186.96301	371.28696	1137.90845	1187.54749	445.85608	1024.13831	1221.37158	561.04645	956.69739	1199.66284	519.34802	926.68079	1194.09045	570.54706	887.14270	1627.59387	433.89291	1508.24268	1739.79626	417.63062	1332.67664	1778.70044	431.06372	1192.47327	1816.57202	458.05945	1080.92322	1816.20081	497.02524	949.29675	1855.08398	455.61533	956.26648	1865.14270	488.80878	891.75897	1339.65186	477.56625	975.99335	1586.89648	546.97784	989.86621	1472.28162	302.91623	1030.32727	1584.38562	327.86505	1041.73560	1313.18188	450.77048	659.04425	1338.75256	464.98212	482.02298	1380.44788	323.35321	376.94382	1440.88367	195.53777	203.13516	1505.19421	170.55589	198.72591	1395.33215	273.70004	79.00677	1681.34387	512.75806	681.12732	1643.54565	510.45145	470.21335	1665.12585	466.44122	286.80048	1637.66223	432.57703	94.83739	1594.42322	383.76041	40.10676	1617.74658	582.07727	41.73471	1446.85669	423.58060	1807.08667	-3356.82275	2846.04077	1034.29041			 
93	0.920	1344.64746	518.77411	1730.91858	1486.87122	543.60510	1724.11853	1365.76477	385.96799	1663.36462	1508.58386	397.60886	1655.65320	1456.86841	342.29153	1523.21802	1499.14050	306.82474	1248.10181	1424.11865	479.80392	1459.44397	1435.29944	542.55878	1291.11121	1546.25122	305.01276	1352.81335	1271.16443	374.90723	1484.96765	1199.31531	362.19305	1282.27466	1186.21545	377.85641	1139.38635	1185.33057	447.84210	1022.96246	1217.48804	561.43671	950.93726	1196.48926	518.43420	922.55084	1190.77466	568.01099	881.09821	1625.17639	449.88641	1511.20300	1738.44446	437.64865	1335.91406	1777.23254	453.81265	1195.51392	1813.08972	484.73969	1084.02478	1810.72510	527.59082	953.89905	1850.66064	486.93024	959.10071	1859.49170	522.92261	896.03510	1338.91809	491.00894	979.94336	1586.25562	559.60547	991.10730	1470.77527	316.46927	1032.70117	1583.23279	340.85422	1043.92883	1310.19983	470.67319	663.59277	1336.49402	490.57809	486.15851	1379.26807	353.12744	374.88065	1439.29919	233.59837	194.99193	1503.92261	208.97798	189.09996	1391.67957	317.52637	75.82787	1680.59363	518.36737	680.74878	1643.73840	512.41351	469.98651	1665.23169	466.15958	287.13849	1637.38574	432.60666	95.08115	1593.43213	383.53235	40.08580	1617.86719	582.22644	41.53949	1444.44885	437.54935	1808.75854	-3356.83105	2846.11621	1034.18958			 
94	0.930	1341.64917	532.24908	1732.19653	1483.78638	557.90009	1725.71814	1363.79773	399.81467	1664.53760	1506.07788	411.95264	1657.00903	1455.68225	356.70966	1524.65771	1499.09619	321.01749	1249.99512	1421.71167	493.95386	1460.86328	1433.22473	556.76794	1292.57715	1546.28052	320.28531	1355.04919	1270.01563	387.30457	1486.16919	1197.98694	370.71078	1283.78870	1184.90308	384.01462	1140.43677	1183.25500	450.24146	1021.66919	1213.43286	561.48981	945.17145	1193.13538	516.34406	918.48102	1187.08447	564.63916	874.69409	1622.55237	465.73486	1513.54321	1736.61499	457.37442	1338.64307	1776.14856	476.56012	1198.49963	1810.05579	511.50522	1087.29382	1804.91052	558.12457	958.55835	1845.85620	518.39343	961.92761	1853.27844	556.96332	900.29059	1339.02539	506.06821	983.78461	1585.77527	572.23450	991.81854	1469.04443	329.87219	1034.61279	1581.63000	354.45532	1045.44739	1306.93494	490.37640	667.88312	1333.94946	515.66919	489.84668	1377.50610	382.89813	371.82837	1436.95386	272.64038	185.98894	1501.50586	248.94344	177.85028	1387.59473	363.07761	72.08072	1680.23608	524.29364	680.52673	1643.76941	514.75909	469.75443	1665.27222	466.67084	287.38708	1637.10547	432.68021	95.13159	1593.48511	383.71225	40.42551	1618.01001	582.38660	41.37640	1441.58643	451.26920	1809.97559						 
95	0.940	1338.79578	545.80939	1733.21558	1480.45593	572.05792	1726.85986	1361.47571	413.50275	1665.03479	1503.81982	426.54901	1658.00549	1454.44458	371.12668	1525.65161	1498.75928	335.11942	1251.27771	1419.29846	508.10541	1461.93787	1431.16833	570.97345	1293.60583	1546.04028	335.59573	1356.84473	1268.69653	399.46628	1486.95557	1197.47876	380.91989	1284.60327	1184.23364	390.68445	1141.33447	1181.26233	452.08838	1020.64459	1209.38611	560.94458	939.04834	1189.62964	514.46240	914.21356	1183.44250	561.05786	868.55762	1619.57031	481.38849	1515.19922	1734.89587	477.07529	1341.19946	1774.42749	498.98505	1200.79248	1806.50659	538.15662	1090.30908	1798.99988	589.19537	963.42163	1840.67639	549.93378	964.73340	1846.59558	591.00867	904.74048	1339.48303	521.04028	986.83447	1585.55835	584.87231	991.95288	1467.21631	342.23376	1036.46497	1579.80493	367.77676	1046.63037	1303.39075	509.85544	671.77606	1331.07605	540.14355	492.99957	1375.01367	412.65512	367.95294	1433.78674	312.04150	176.48988	1498.35168	289.69232	166.27753	1382.69299	408.98108	68.30125	1678.48267	529.16626	679.79468	1643.38318	517.64185	469.42990	1665.08020	468.11697	287.50330	1636.84680	432.85861	95.28951	1593.29700	383.79703	40.53826	1618.11902	582.59381	41.18563	1438.86121	465.04230	1810.96899	-3356.89819	2846.13599	1034.18811			 
96	0.950	1335.68237	559.32721	1733.76086	1477.14575	586.31287	1727.69080	1359.34509	427.32419	1665.32678	1501.46582	441.09955	1658.59656	1452.82385	385.49265	1526.10510	1498.66003	349.40665	1252.52576	1416.88269	522.32306	1462.57727	1428.81482	583.74786	1293.88367	1546.10254	350.87759	1358.47534	1267.45105	412.45676	1487.30017	1196.01282	389.70044	1284.90369	1183.20422	397.47150	1141.76575	1178.95520	453.88477	1018.67871	1205.47595	561.30957	933.22699	1186.61572	512.49506	910.04663	1179.80884	557.05347	862.19568	1617.14636	497.28766	1516.62268	1733.33691	496.75641	1343.45215	1773.01758	521.68140	1203.02490	1802.70593	564.72827	1092.95459	1792.53833	619.66003	968.10034	1835.09412	581.54407	967.57184	1839.47998	624.95740	909.32990	1340.16956	536.30682	989.25452	1585.60071	597.37231	991.62128	1464.90259	355.53827	1037.63672	1577.64929	380.90741	1047.36267	1299.61963	529.08020	675.29150	1327.82422	563.88727	495.59042	1371.68774	442.56085	363.35599	1429.79236	353.30392	165.94525	1494.27319	331.35327	154.32214	1377.33020	455.90781	64.66724	1677.50537	534.61890	679.54852	1642.88513	520.89612	469.15515	1664.72070	470.40100	287.51917	1636.63342	433.27280	95.50504	1593.05811	383.70868	40.95753	1618.25537	582.83765	41.02608	1435.93188	478.91904	1811.40100	-3356.96338	2846.09985	1034.11523			 
